<svg id="visual" viewBox="0 0 900 600" width="900" height="600" xmlns="http://www.w3.org/2000/svg" xmlns:xlink="http://www.w3.org/1999/xlink" version="1.1"><rect x="0" y="0" width="900" height="600" fill="#000000"></rect><defs><linearGradient id="grad1_0" x1="33.3%" y1="0%" x2="100%" y2="100%"><stop offset="20%" stop-color="#000000" stop-opacity="1"></stop><stop offset="80%" stop-color="#000000" stop-opacity="1"></stop></linearGradient></defs><defs><linearGradient id="grad2_0" x1="0%" y1="0%" x2="66.7%" y2="100%"><stop offset="20%" stop-color="#000000" stop-opacity="1"></stop><stop offset="80%" stop-color="#000000" stop-opacity="1"></stop></linearGradient></defs><g transform="translate(900, 0)"><path d="M0 486.7C-50.9 483.5 -101.8 480.3 -150.4 462.9C-199 445.6 -245.3 414.1 -268.6 369.7C-291.9 325.4 -292.3 268.2 -316.3 229.8C-340.3 191.4 -388 171.8 -420.4 136.6C-452.7 101.4 -469.7 50.7 -486.7 0L0 0Z" fill="#F2613F"></path></g><g transform="translate(0, 600)"><path d="M0 -486.7C50.2 -476.7 100.4 -466.6 143.7 -442.2C187 -417.9 223.5 -379.3 247.5 -340.6C271.4 -301.9 282.9 -263.1 322.8 -234.5C362.7 -206 430.9 -187.8 462.9 -150.4C495 -113 490.9 -56.5 486.7 0L0 0Z" fill="#F2613F"></path></g></svg>