<svg id="visual" viewBox="0 0 1920 600" width="1920" height="600" xmlns="http://www.w3.org/2000/svg" xmlns:xlink="http://www.w3.org/1999/xlink" version="1.1"><rect x="0" y="0" width="1920" height="600" fill="#111111"></rect><path d="M0 347L13.8 358.2C27.7 369.3 55.3 391.7 83.2 404.7C111 417.7 139 421.3 166.8 429.2C194.7 437 222.3 449 250.2 436C278 423 306 385 333.8 361.7C361.7 338.3 389.3 329.7 417.2 328.2C445 326.7 473 332.3 500.8 345C528.7 357.7 556.3 377.3 584.2 376.7C612 376 640 355 667.8 354.8C695.7 354.7 723.3 375.3 751.2 376.2C779 377 807 358 834.8 358.8C862.7 359.7 890.3 380.3 918.2 395.8C946 411.3 974 421.7 1001.8 412.2C1029.7 402.7 1057.3 373.3 1085.2 362.3C1113 351.3 1141 358.7 1168.8 363.8C1196.7 369 1224.3 372 1252.2 372.2C1280 372.3 1308 369.7 1335.8 379.3C1363.7 389 1391.3 411 1419.2 414.2C1447 417.3 1475 401.7 1502.8 388.7C1530.7 375.7 1558.3 365.3 1586.2 369.5C1614 373.7 1642 392.3 1669.8 396.8C1697.7 401.3 1725.3 391.7 1753.2 391.3C1781 391 1809 400 1836.8 391.5C1864.7 383 1892.3 357 1906.2 344L1920 331L1920 601L1906.2 601C1892.3 601 1864.7 601 1836.8 601C1809 601 1781 601 1753.2 601C1725.3 601 1697.7 601 1669.8 601C1642 601 1614 601 1586.2 601C1558.3 601 1530.7 601 1502.8 601C1475 601 1447 601 1419.2 601C1391.3 601 1363.7 601 1335.8 601C1308 601 1280 601 1252.2 601C1224.3 601 1196.7 601 1168.8 601C1141 601 1113 601 1085.2 601C1057.3 601 1029.7 601 1001.8 601C974 601 946 601 918.2 601C890.3 601 862.7 601 834.8 601C807 601 779 601 751.2 601C723.3 601 695.7 601 667.8 601C640 601 612 601 584.2 601C556.3 601 528.7 601 500.8 601C473 601 445 601 417.2 601C389.3 601 361.7 601 333.8 601C306 601 278 601 250.2 601C222.3 601 194.7 601 166.8 601C139 601 111 601 83.2 601C55.3 601 27.7 601 13.8 601L0 601Z" fill="#f2613f"></path><path d="M0 390L13.8 391.3C27.7 392.7 55.3 395.3 83.2 405.3C111 415.3 139 432.7 166.8 447.7C194.7 462.7 222.3 475.3 250.2 481.7C278 488 306 488 333.8 486.3C361.7 484.7 389.3 481.3 417.2 476.8C445 472.3 473 466.7 500.8 467C528.7 467.3 556.3 473.7 584.2 470.7C612 467.7 640 455.3 667.8 441.3C695.7 427.3 723.3 411.7 751.2 419.5C779 427.3 807 458.7 834.8 464.8C862.7 471 890.3 452 918.2 446.7C946 441.3 974 449.7 1001.8 440.7C1029.7 431.7 1057.3 405.3 1085.2 407C1113 408.7 1141 438.3 1168.8 439C1196.7 439.7 1224.3 411.3 1252.2 404.8C1280 398.3 1308 413.7 1335.8 414.7C1363.7 415.7 1391.3 402.3 1419.2 404.7C1447 407 1475 425 1502.8 428.3C1530.7 431.7 1558.3 420.3 1586.2 421.2C1614 422 1642 435 1669.8 431.7C1697.7 428.3 1725.3 408.7 1753.2 398.8C1781 389 1809 389 1836.8 396.3C1864.7 403.7 1892.3 418.3 1906.2 425.7L1920 433L1920 601L1906.2 601C1892.3 601 1864.7 601 1836.8 601C1809 601 1781 601 1753.2 601C1725.3 601 1697.7 601 1669.8 601C1642 601 1614 601 1586.2 601C1558.3 601 1530.7 601 1502.8 601C1475 601 1447 601 1419.2 601C1391.3 601 1363.7 601 1335.8 601C1308 601 1280 601 1252.2 601C1224.3 601 1196.7 601 1168.8 601C1141 601 1113 601 1085.2 601C1057.3 601 1029.7 601 1001.8 601C974 601 946 601 918.2 601C890.3 601 862.7 601 834.8 601C807 601 779 601 751.2 601C723.3 601 695.7 601 667.8 601C640 601 612 601 584.2 601C556.3 601 528.7 601 500.8 601C473 601 445 601 417.2 601C389.3 601 361.7 601 333.8 601C306 601 278 601 250.2 601C222.3 601 194.7 601 166.8 601C139 601 111 601 83.2 601C55.3 601 27.7 601 13.8 601L0 601Z" fill="#e96d4f"></path><path d="M0 422L13.8 432.2C27.7 442.3 55.3 462.7 83.2 468.3C111 474 139 465 166.8 457.3C194.7 449.7 222.3 443.3 250.2 442.5C278 441.7 306 446.3 333.8 460.5C361.7 474.7 389.3 498.3 417.2 496.3C445 494.3 473 466.7 500.8 458C528.7 449.3 556.3 459.7 584.2 470.3C612 481 640 492 667.8 489.5C695.7 487 723.3 471 751.2 457.3C779 443.7 807 432.3 834.8 436C862.7 439.7 890.3 458.3 918.2 466C946 473.7 974 470.3 1001.8 462.5C1029.7 454.7 1057.3 442.3 1085.2 441.8C1113 441.3 1141 452.7 1168.8 459.8C1196.7 467 1224.3 470 1252.2 466C1280 462 1308 451 1335.8 458.7C1363.7 466.3 1391.3 492.7 1419.2 504.8C1447 517 1475 515 1502.8 511.7C1530.7 508.3 1558.3 503.7 1586.2 497.3C1614 491 1642 483 1669.8 486.5C1697.7 490 1725.3 505 1753.2 512.8C1781 520.7 1809 521.3 1836.8 507.3C1864.7 493.3 1892.3 464.7 1906.2 450.3L1920 436L1920 601L1906.2 601C1892.3 601 1864.7 601 1836.8 601C1809 601 1781 601 1753.2 601C1725.3 601 1697.7 601 1669.8 601C1642 601 1614 601 1586.2 601C1558.3 601 1530.7 601 1502.8 601C1475 601 1447 601 1419.2 601C1391.3 601 1363.7 601 1335.8 601C1308 601 1280 601 1252.2 601C1224.3 601 1196.7 601 1168.8 601C1141 601 1113 601 1085.2 601C1057.3 601 1029.7 601 1001.8 601C974 601 946 601 918.2 601C890.3 601 862.7 601 834.8 601C807 601 779 601 751.2 601C723.3 601 695.7 601 667.8 601C640 601 612 601 584.2 601C556.3 601 528.7 601 500.8 601C473 601 445 601 417.2 601C389.3 601 361.7 601 333.8 601C306 601 278 601 250.2 601C222.3 601 194.7 601 166.8 601C139 601 111 601 83.2 601C55.3 601 27.7 601 13.8 601L0 601Z" fill="#df775e"></path><path d="M0 546L13.8 538.5C27.7 531 55.3 516 83.2 503.3C111 490.7 139 480.3 166.8 481.7C194.7 483 222.3 496 250.2 508.3C278 520.7 306 532.3 333.8 532.2C361.7 532 389.3 520 417.2 507.8C445 495.7 473 483.3 500.8 482.3C528.7 481.3 556.3 491.7 584.2 502.2C612 512.7 640 523.3 667.8 531.2C695.7 539 723.3 544 751.2 547.8C779 551.7 807 554.3 834.8 550C862.7 545.7 890.3 534.3 918.2 532C946 529.7 974 536.3 1001.8 537.2C1029.7 538 1057.3 533 1085.2 527.7C1113 522.3 1141 516.7 1168.8 517.5C1196.7 518.3 1224.3 525.7 1252.2 523.8C1280 522 1308 511 1335.8 501.2C1363.7 491.3 1391.3 482.7 1419.2 480C1447 477.3 1475 480.7 1502.8 481.3C1530.7 482 1558.3 480 1586.2 488.8C1614 497.7 1642 517.3 1669.8 528.5C1697.7 539.7 1725.3 542.3 1753.2 539.8C1781 537.3 1809 529.7 1836.8 520.3C1864.7 511 1892.3 500 1906.2 494.5L1920 489L1920 601L1906.2 601C1892.3 601 1864.7 601 1836.8 601C1809 601 1781 601 1753.2 601C1725.3 601 1697.7 601 1669.8 601C1642 601 1614 601 1586.2 601C1558.3 601 1530.7 601 1502.8 601C1475 601 1447 601 1419.2 601C1391.3 601 1363.7 601 1335.8 601C1308 601 1280 601 1252.2 601C1224.3 601 1196.7 601 1168.8 601C1141 601 1113 601 1085.2 601C1057.3 601 1029.7 601 1001.8 601C974 601 946 601 918.2 601C890.3 601 862.7 601 834.8 601C807 601 779 601 751.2 601C723.3 601 695.7 601 667.8 601C640 601 612 601 584.2 601C556.3 601 528.7 601 500.8 601C473 601 445 601 417.2 601C389.3 601 361.7 601 333.8 601C306 601 278 601 250.2 601C222.3 601 194.7 601 166.8 601C139 601 111 601 83.2 601C55.3 601 27.7 601 13.8 601L0 601Z" fill="#d4806d"></path><path d="M0 573L13.8 571.3C27.7 569.7 55.3 566.3 83.2 565.5C111 564.7 139 566.3 166.8 567C194.7 567.7 222.3 567.3 250.2 567.7C278 568 306 569 333.8 562.2C361.7 555.3 389.3 540.7 417.2 543.5C445 546.3 473 566.7 500.8 564.5C528.7 562.3 556.3 537.7 584.2 536C612 534.3 640 555.7 667.8 561.7C695.7 567.7 723.3 558.3 751.2 556.8C779 555.3 807 561.7 834.8 563.5C862.7 565.3 890.3 562.7 918.2 555.3C946 548 974 536 1001.8 528.8C1029.7 521.7 1057.3 519.3 1085.2 520C1113 520.7 1141 524.3 1168.8 535.8C1196.7 547.3 1224.3 566.7 1252.2 566.2C1280 565.7 1308 545.3 1335.8 542.7C1363.7 540 1391.3 555 1419.2 560.2C1447 565.3 1475 560.7 1502.8 562.8C1530.7 565 1558.3 574 1586.2 575.3C1614 576.7 1642 570.3 1669.8 566.8C1697.7 563.3 1725.3 562.7 1753.2 559.8C1781 557 1809 552 1836.8 546C1864.7 540 1892.3 533 1906.2 529.5L1920 526L1920 601L1906.2 601C1892.3 601 1864.7 601 1836.8 601C1809 601 1781 601 1753.2 601C1725.3 601 1697.7 601 1669.8 601C1642 601 1614 601 1586.2 601C1558.3 601 1530.7 601 1502.8 601C1475 601 1447 601 1419.2 601C1391.3 601 1363.7 601 1335.8 601C1308 601 1280 601 1252.2 601C1224.3 601 1196.7 601 1168.8 601C1141 601 1113 601 1085.2 601C1057.3 601 1029.7 601 1001.8 601C974 601 946 601 918.2 601C890.3 601 862.7 601 834.8 601C807 601 779 601 751.2 601C723.3 601 695.7 601 667.8 601C640 601 612 601 584.2 601C556.3 601 528.7 601 500.8 601C473 601 445 601 417.2 601C389.3 601 361.7 601 333.8 601C306 601 278 601 250.2 601C222.3 601 194.7 601 166.8 601C139 601 111 601 83.2 601C55.3 601 27.7 601 13.8 601L0 601Z" fill="#c8897b"></path></svg>